<svg width="31" height="23" viewBox="0 0 31 23" fill="none" xmlns="http://www.w3.org/2000/svg">
<path d="M26.2299 1.91138C24.2665 1.02036 22.1408 0.373653 19.9264 0C19.8875 0.000539936 19.8503 0.0160366 19.8231 0.0431141C19.5574 0.517366 19.2473 1.13533 19.0407 1.60958C16.692 1.26489 14.3035 1.26489 11.9548 1.60958C11.7481 1.12096 11.4381 0.517366 11.1576 0.0431141C11.1428 0.0143716 11.0985 0 11.0543 0C8.83991 0.373653 6.7289 1.02036 4.75075 1.91138C4.73599 1.91138 4.72123 1.92575 4.70647 1.94012C0.691118 7.78923 -0.416055 13.4803 0.130151 19.1138C0.130151 19.1425 0.144913 19.1713 0.174437 19.1857C2.83165 21.0827 5.38553 22.2324 7.90989 22.994C7.95418 23.0084 7.99846 22.994 8.01322 22.9653C8.60372 22.1749 9.13516 21.3414 9.59279 20.4647C9.62232 20.4072 9.59279 20.3497 9.53374 20.3354C8.69229 20.0192 7.89513 19.6455 7.11272 19.2144C7.05367 19.1857 7.05367 19.0994 7.09796 19.0563C7.26035 18.9413 7.42273 18.812 7.58512 18.697C7.61464 18.6683 7.65893 18.6683 7.68845 18.6827C12.7667 20.939 18.2435 20.939 23.2627 18.6827C23.2922 18.6683 23.3365 18.6683 23.366 18.697C23.5284 18.8264 23.6908 18.9413 23.8532 19.0707C23.9122 19.1138 23.9122 19.2 23.8384 19.2288C23.0708 19.6743 22.2589 20.0336 21.4174 20.3497C21.3584 20.3641 21.3436 20.436 21.3584 20.4791C21.8307 21.3557 22.3622 22.1893 22.9379 22.9797C22.9822 22.994 23.0265 23.0084 23.0708 22.994C25.6099 22.2324 28.1638 21.0827 30.821 19.1857C30.8505 19.1713 30.8653 19.1425 30.8653 19.1138C31.5148 12.6036 29.7876 6.9557 26.289 1.94012C26.2742 1.92575 26.2594 1.91138 26.2299 1.91138ZM10.3604 15.6791C8.83991 15.6791 7.57035 14.3138 7.57035 12.6324C7.57035 10.9509 8.81039 9.58564 10.3604 9.58564C11.9252 9.58564 13.1653 10.9653 13.1505 12.6324C13.1505 14.3138 11.9105 15.6791 10.3604 15.6791ZM20.6498 15.6791C19.1292 15.6791 17.8597 14.3138 17.8597 12.6324C17.8597 10.9509 19.0997 9.58564 20.6498 9.58564C22.2146 9.58564 23.4546 10.9653 23.4398 12.6324C23.4398 14.3138 22.2146 15.6791 20.6498 15.6791Z" fill="white"/>
</svg>
