<svg width="33" height="33" viewBox="0 0 33 33" fill="none" xmlns="http://www.w3.org/2000/svg">
<g clip-path="url(#clip0_0_198)">
<path d="M28.2858 7.07141H7.07153V28.0336H28.2858V7.07141Z" fill="#B7F272"/>
<path d="M16.5 0C13.2366 0 10.0465 0.967708 7.3331 2.78074C4.61969 4.59379 2.50484 7.17073 1.25599 10.1857C0.00714903 13.2007 -0.319605 16.5183 0.31705 19.719C0.953707 22.9197 2.52518 25.8597 4.83276 28.1671C7.1403 30.4748 10.0803 32.0463 13.281 32.683C16.4817 33.3196 19.7993 32.9929 22.8143 31.7441C25.8293 30.4951 28.4062 28.3802 30.2193 25.6669C32.0324 22.9535 33 19.7634 33 16.5C33 12.1239 31.2616 7.92709 28.1672 4.83273C25.0729 1.73839 20.8761 0 16.5 0ZM10.725 20.625H7.425V17.325H10.725V20.625ZM10.725 15.675H7.425V12.375H10.725V15.675ZM15.675 25.575H12.375V22.275H15.675V25.575ZM15.675 20.625H12.375V17.325H15.675V20.625ZM15.675 15.675H12.375V12.375H15.675V15.675ZM15.675 10.725H12.375V7.425H15.675V10.725ZM20.625 25.575H17.325V22.275H20.625V25.575ZM20.625 20.625H17.325V17.325H20.625V20.625ZM20.625 15.675H17.325V12.375H20.625V15.675ZM20.625 10.725H17.325V7.425H20.625V10.725ZM25.575 20.625H22.275V17.325H25.575V20.625ZM25.575 15.675H22.275V12.375H25.575V15.675Z" fill="#292929"/>
</g>
<defs>
<clipPath id="clip0_0_198">
<rect width="33" height="33" fill="white"/>
</clipPath>
</defs>
</svg>
