<svg width="21" height="22" viewBox="0 0 21 22" fill="none" xmlns="http://www.w3.org/2000/svg">
<path d="M21 10.4327C20.8717 8.1655 20.0159 6.0007 18.5603 4.2611C17.1047 2.5216 15.1273 1.3005 12.923 0.780203C10.7187 0.259803 8.40571 0.468003 6.32911 1.3737C4.25241 2.2794 2.52341 3.8341 1.40001 5.8058C1.28331 6.0046 1.17831 6.2094 1.07331 6.3907L0.97421 6.613C0.33881 7.9778 0.00640887 9.4647 8.87098e-06 10.9709C-0.00349113 13.6726 1.02881 16.2723 2.88331 18.2321C4.73781 20.1919 7.27261 21.3619 9.96331 21.5C8.57101 21.4286 7.26391 20.8055 6.32961 19.7678C5.39541 18.73 4.91051 17.3626 4.98171 15.9664C5.05281 14.5701 5.67421 13.2594 6.70911 12.3226C7.74401 11.3857 9.10761 10.8995 10.5 10.9709C10.5 12.3671 11.0531 13.7062 12.0377 14.6935C13.0223 15.6808 14.3576 16.2354 15.75 16.2354C17.1424 16.2354 18.4777 15.6808 19.4623 14.6935C20.4469 13.7062 21 12.3671 21 10.9709V10.4327ZM3.12081 14.4806C2.45921 13.0862 2.20671 11.532 2.39261 9.9991C2.57851 8.4662 3.19521 7.018 4.17081 5.8233C4.52531 5.7456 4.88711 5.7064 5.25001 5.7063C6.22851 5.7055 7.18781 5.9789 8.01961 6.4957C8.85141 7.0125 9.52261 7.7521 9.95751 8.6311C8.34501 8.7479 6.81191 9.3785 5.58201 10.4309C4.35211 11.4832 3.48971 12.9021 3.12081 14.4806ZM15.75 13.8956C14.9765 13.8956 14.2346 13.5875 13.6876 13.039C13.1406 12.4905 12.8333 11.7466 12.8333 10.9709C12.8335 9.2591 12.2576 7.5974 11.199 6.2545C10.1404 4.9117 8.66101 3.9663 7.00001 3.5712C8.21311 2.9921 9.55011 2.722 10.8922 2.785C12.2343 2.8479 13.5403 3.242 14.6942 3.9322C15.8481 4.6224 16.8144 5.5875 17.5073 6.7418C18.2003 7.8962 18.5985 9.2041 18.6667 10.5497V10.6667C18.6725 10.768 18.6725 10.8696 18.6667 10.9709C18.6667 11.7466 18.3594 12.4905 17.8124 13.039C17.2654 13.5875 16.5236 13.8956 15.75 13.8956Z" fill="#292929"/>
</svg>
