<svg width="41" height="41" viewBox="0 0 41 41" fill="none" xmlns="http://www.w3.org/2000/svg">
<path d="M16.7729 0.542613C18.5371 -0.180871 20.5105 -0.180871 22.2747 0.542613L36.9137 6.54595C37.5442 6.8043 38.0842 7.24716 38.4643 7.81781C38.8445 8.38847 39.0476 9.06093 39.0476 9.74905V20.877C38.1765 20.0307 37.1903 19.3145 36.119 18.7501V10.93L20.9881 16.8385V21.3766C19.6173 22.859 18.6137 24.6491 18.0595 26.5999V16.8365L2.92857 10.8846V28.8116C2.92883 28.9097 2.95793 29.0054 3.01217 29.0866C3.06641 29.1679 3.14334 29.231 3.23314 29.2678L17.874 35.2712C17.9352 35.2975 17.997 35.3212 18.0595 35.3422V33.6815C18.5613 35.4459 19.4315 37.081 20.6113 38.4762C19.3142 38.6734 17.9885 38.5145 16.7729 38.0161L2.13395 32.0128C1.5034 31.7544 0.963448 31.3116 0.583269 30.7409C0.203091 30.1702 -3.9546e-06 29.4978 0 28.8097V9.75103C-3.9546e-06 9.0629 0.203091 8.39044 0.583269 7.81979C0.963448 7.24913 1.5034 6.80627 2.13395 6.54793L16.7729 0.542613ZM21.1736 3.28756C20.1155 2.8539 18.9321 2.8539 17.874 3.28756L14.1352 4.82197L28.8308 10.6022L34.0417 8.56813L21.1736 3.28756ZM24.7777 12.184L10.1817 6.44129L5.05667 8.54246L19.5258 14.2338L24.7777 12.184ZM41 30.1387C41 33.0193 39.8687 35.7819 37.8549 37.8188C35.8411 39.8557 33.1098 41 30.2619 41C27.414 41 24.6827 39.8557 22.6689 37.8188C20.6551 35.7819 19.5238 33.0193 19.5238 30.1387C19.5238 27.2581 20.6551 24.4955 22.6689 22.4586C24.6827 20.4217 27.414 19.2774 30.2619 19.2774C33.1098 19.2774 35.8411 20.4217 37.8549 22.4586C39.8687 24.4955 41 27.2581 41 30.1387ZM27.0483 25.4901C26.8652 25.3046 26.6169 25.2004 26.3578 25.2002C26.0988 25.2 25.8503 25.3039 25.667 25.4891C25.4837 25.6742 25.3806 25.9254 25.3804 26.1874C25.3802 26.4495 25.483 26.7008 25.666 26.8862L28.8816 30.1387L25.666 33.3892C25.4827 33.5746 25.3797 33.8261 25.3797 34.0883C25.3797 34.3505 25.4827 34.6019 25.666 34.7873C25.8493 34.9727 26.0979 35.0769 26.3571 35.0769C26.6164 35.0769 26.865 34.9727 27.0483 34.7873L30.2619 31.5349L33.4755 34.7873C33.5663 34.8791 33.674 34.952 33.7926 35.0016C33.9112 35.0513 34.0383 35.0769 34.1667 35.0769C34.295 35.0769 34.4221 35.0513 34.5407 35.0016C34.6593 34.952 34.767 34.8791 34.8578 34.7873C34.9486 34.6955 35.0206 34.5865 35.0697 34.4666C35.1188 34.3466 35.1441 34.2181 35.1441 34.0883C35.1441 33.9584 35.1188 33.8299 35.0697 33.7099C35.0206 33.59 34.9486 33.481 34.8578 33.3892L31.6422 30.1387L34.8578 26.8862C35.0409 26.7008 35.1436 26.4495 35.1434 26.1874C35.1432 25.9254 35.0401 25.6742 34.8568 25.4891C34.6735 25.3039 34.425 25.2 34.166 25.2002C33.9069 25.2004 33.6586 25.3046 33.4755 25.4901L30.2619 28.7445L27.0483 25.4901Z" fill="#186143"/>
</svg>
