<svg width="22" height="23" viewBox="0 0 22 23" fill="none" xmlns="http://www.w3.org/2000/svg">
<path d="M11 22.5C4.9 22.5 0 17.6 0 11.5C0 5.4 4.9 0.5 11 0.5C17.1 0.5 22 5.4 22 11.5C22 17.6 17.1 22.5 11 22.5ZM11 2.5C6 2.5 2 6.5 2 11.5C2 16.5 6 20.5 11 20.5C16 20.5 20 16.5 20 11.5C20 6.5 16 2.5 11 2.5Z" fill="#292929"/>
<path d="M11 16.5C8.2 16.5 6 14.3 6 11.5C6 8.7 8.2 6.5 11 6.5C13.8 6.5 16 8.7 16 11.5C16 14.3 13.8 16.5 11 16.5ZM11 8.5C9.3 8.5 8 9.8 8 11.5C8 13.2 9.3 14.5 11 14.5C12.7 14.5 14 13.2 14 11.5C14 9.8 12.7 8.5 11 8.5Z" fill="#292929"/>
<path d="M20.2 8.50004H11C10.4 8.50004 10 8.10004 10 7.50004C10 6.90004 10.4 6.50004 11 6.50004H20.2C20.8 6.50004 21.2 6.90004 21.2 7.50004C21.2 8.10004 20.7 8.50004 20.2 8.50004ZM7.50001 14.5C7.20001 14.5 6.80001 14.3 6.60001 14L2.10001 6.10004C1.80001 5.60004 2.00001 5.00004 2.40001 4.70004C2.90001 4.40004 3.50001 4.60004 3.80001 5.10004L8.40001 13C8.70001 13.5 8.50001 14.1 8.00001 14.4C7.90001 14.5 7.70001 14.5 7.50001 14.5ZM9.90001 22.4C9.70001 22.4 9.60001 22.4 9.40001 22.3C8.90001 22 8.80001 21.4 9.00001 20.9L13.6 13C13.9 12.5 14.5 12.4 15 12.6C15.5 12.9 15.6 13.5 15.4 14L10.8 21.9C10.6 22.3 10.2 22.4 9.90001 22.4Z" fill="#292929"/>
</svg>
