<svg width="15" height="14" viewBox="0 0 15 14" fill="none" xmlns="http://www.w3.org/2000/svg">
<path d="M4.4668 3.62598V2.27848C4.46687 2.06093 4.55335 1.85232 4.70721 1.69852C4.86106 1.54471 5.06971 1.45831 5.28726 1.45831H12.3963C12.6139 1.45831 12.8226 1.54475 12.9765 1.69862C13.1304 1.85249 13.2168 2.06117 13.2168 2.27877V9.38815C13.2167 9.60564 13.1303 9.81421 12.9765 9.96801C12.8227 10.1218 12.6141 10.2082 12.3966 10.2083H11.034" stroke="#074D35" stroke-linecap="round" stroke-linejoin="round"/>
<path d="M10.0636 3.79163H2.95366C2.73617 3.79178 2.52763 3.87829 2.37389 4.03214C2.22015 4.18599 2.13379 4.39459 2.13379 4.61208V11.7212C2.13379 11.9388 2.22023 12.1475 2.3741 12.3013C2.52796 12.4552 2.73665 12.5416 2.95425 12.5416H10.0636C10.2811 12.5415 10.4897 12.4551 10.6435 12.3013C10.7973 12.1475 10.8837 11.939 10.8838 11.7215V4.6115C10.8836 4.39405 10.7972 4.18556 10.6434 4.03183C10.4896 3.8781 10.2811 3.7917 10.0636 3.79163Z" stroke="#074D35" stroke-linejoin="round"/>
</svg>
