<svg width="35" height="35" viewBox="0 0 35 35" fill="none" xmlns="http://www.w3.org/2000/svg">
<path d="M14.5833 21.875L22.152 17.5L14.5833 13.125V21.875ZM31.4416 10.4562C31.6312 11.1417 31.7625 12.0604 31.85 13.2271C31.952 14.3937 31.9958 15.4 31.9958 16.275L32.0833 17.5C32.0833 20.6937 31.85 23.0417 31.4416 24.5437C31.077 25.8562 30.2312 26.7021 28.9187 27.0667C28.2333 27.2562 26.9791 27.3875 25.0541 27.475C23.1583 27.5771 21.4229 27.6208 19.8187 27.6208L17.5 27.7083C11.3895 27.7083 7.58329 27.475 6.08121 27.0667C4.76871 26.7021 3.92288 25.8562 3.55829 24.5437C3.36871 23.8583 3.23746 22.9396 3.14996 21.7729C3.04788 20.6062 3.00413 19.6 3.00413 18.725L2.91663 17.5C2.91663 14.3062 3.14996 11.9583 3.55829 10.4562C3.92288 9.14374 4.76871 8.29791 6.08121 7.93332C6.76663 7.74374 8.02079 7.61249 9.94579 7.52499C11.8416 7.42291 13.577 7.37916 15.1812 7.37916L17.5 7.29166C23.6104 7.29166 27.4166 7.52499 28.9187 7.93332C30.2312 8.29791 31.077 9.14374 31.4416 10.4562Z" fill="white"/>
</svg>
