<svg width="33" height="33" viewBox="0 0 33 33" fill="none" xmlns="http://www.w3.org/2000/svg">
<path d="M16.4175 26.4C16.995 26.4 17.4834 26.2003 17.8827 25.801C18.282 25.4017 18.4811 24.9139 18.48 24.3375C18.4789 23.7611 18.2798 23.2727 17.8827 22.8723C17.4856 22.4719 16.9972 22.2728 16.4175 22.275C15.8378 22.2772 15.3499 22.4768 14.9539 22.8739C14.5579 23.271 14.3583 23.7589 14.355 24.3375C14.3517 24.9161 14.5513 25.4045 14.9539 25.8027C15.3565 26.2009 15.8444 26.4 16.4175 26.4ZM16.5 33C14.2175 33 12.0725 32.5666 10.065 31.6998C8.0575 30.833 6.31125 29.6576 4.82625 28.1737C3.34125 26.6898 2.1659 24.9436 1.3002 22.935C0.434502 20.9264 0.00110209 18.7814 2.08861e-06 16.5C-0.00109791 14.2186 0.432302 12.0736 1.3002 10.065C2.1681 8.0564 3.34345 6.31015 4.82625 4.82625C6.30905 3.34235 8.0553 2.167 10.065 1.3002C12.0747 0.4334 14.2197 0 16.5 0C18.7803 0 20.9253 0.4334 22.935 1.3002C24.9447 2.167 26.6909 3.34235 28.1737 4.82625C29.6565 6.31015 30.8324 8.0564 31.7014 10.065C32.5704 12.0736 33.0033 14.2186 33 16.5C32.9967 18.7814 32.5633 20.9264 31.6998 22.935C30.8363 24.9436 29.6609 26.6898 28.1737 28.1737C26.6865 29.6576 24.9403 30.8335 22.935 31.7014C20.9297 32.5693 18.7847 33.0022 16.5 33ZM16.665 9.405C17.3525 9.405 17.9509 9.625 18.4602 10.065C18.9695 10.505 19.2236 11.055 19.2225 11.715C19.2225 12.32 19.0371 12.8562 18.6664 13.3237C18.2957 13.7912 17.8761 14.2312 17.4075 14.6437C16.775 15.1937 16.2184 15.7987 15.7377 16.4587C15.257 17.1187 15.0161 17.8612 15.015 18.6862C15.015 19.0712 15.1596 19.3946 15.4489 19.6564C15.7382 19.9182 16.0748 20.0486 16.4587 20.0475C16.8712 20.0475 17.2221 19.91 17.5114 19.635C17.8007 19.36 17.9861 19.0162 18.0675 18.6037C18.1775 18.0262 18.425 17.5109 18.81 17.0577C19.195 16.6045 19.6075 16.1711 20.0475 15.7575C20.68 15.1525 21.2234 14.4925 21.6777 13.7775C22.132 13.0625 22.3586 12.265 22.3575 11.385C22.3575 9.9825 21.7871 8.83465 20.6464 7.94145C19.5057 7.04825 18.1786 6.6011 16.665 6.6C15.62 6.6 14.6234 6.82 13.6752 7.26C12.727 7.7 12.0048 8.37375 11.5087 9.28125C11.3162 9.61125 11.2546 9.96215 11.3239 10.3339C11.3932 10.7057 11.5786 10.9873 11.88 11.1787C12.265 11.3987 12.6637 11.4675 13.0762 11.385C13.4887 11.3025 13.8325 11.0687 14.1075 10.6837C14.41 10.2712 14.7884 9.955 15.2427 9.735C15.697 9.515 16.1711 9.405 16.665 9.405Z" fill="white"/>
</svg>
