<svg width="27" height="22" viewBox="0 0 27 22" fill="none" xmlns="http://www.w3.org/2000/svg">
<path d="M24.699 0.194239C24.699 0.194239 27.1965 -0.758043 26.9876 1.55446C26.9188 2.50674 26.2946 5.84004 25.8086 9.44488L24.1436 20.1243C24.1436 20.1243 24.0047 21.6888 22.7556 21.9609C21.5072 22.2325 19.6339 21.0087 19.2867 20.7365C19.009 20.5322 14.0834 17.4711 12.3489 15.9751C11.8629 15.5665 11.3075 14.7506 12.4184 13.7984L19.7033 6.99598C20.5358 6.17884 21.3683 4.27428 17.8994 6.58741L8.18577 13.0491C8.18577 13.0491 7.07554 13.7298 4.99459 13.1176L0.484265 11.7568C0.484265 11.7568 -1.18075 10.7366 1.66392 9.71643C8.60234 6.51953 17.1364 3.25474 24.6983 0.19361" fill="white"/>
</svg>
